name processed_emg_signals
nRows=57
nColumns=7
 
endheader
time	LGLTMED	LRF	LADDLONG	LST	LTA	LGM
0.0	0.0510224269806456	0.0278846659552486	0.0010033951604725	0.003595256037608	0.0002779956312743	0.0288246531159043
0.001	0.0592422280811456	0.0259508912051392	0.0019349015379564	0.0029347066705754	0.0068592352330713	0.0247962800812327
0.002	0.0674198851636509	0.0240262437605774	0.0028635492103077	0.0022635094227484	0.0133949710550285	0.0206558311468697
0.003	0.0755493891902553	0.0221117616106459	0.0037887385872334	0.0015817804457289	0.0198804195973823	0.0164032087345771
0.004	0.0836247595016341	0.0202084677487412	0.0047098749926552	0.0008896411265486	0.0263108439647377	0.0120384027386772
0.005	0.0916400523847252	0.0183173688448392	0.0056263696288167	0.0001872179573342	0.0326815611540275	0.0075614921214396
0.006	0.099589369582867	0.0164394539602679	0.0065376405269672	0.0005253575886593	0.0389879492316983	0.0029726464524709
0.007	0.1074668667257031	0.0145756933081104	0.0074431134816094	0.0012479491734104	0.0452254543777525	0.0017278726107331
0.008	0.115266761656887	0.0127270370620235	0.0083422229654263	0.0019804157018211	0.0513895977760247	0.0065397099041617
0.009000000000000001	0.1229833426382692	0.010894414215864	0.0092344130222041	0.0027226114198329	0.0574759823316039	0.0114624154038192
0.01	0.1306109764097575	0.0090787314962396	0.0101191381351466	0.0034743860022466	0.0634802991978639	0.0164954429408308
0.011	0.1381441160846224	0.0072808723297095	0.0109958640680968	0.0042355846296929	0.0693983340968354	0.0216381489887594
0.012	0.1455773088608265	0.0055016958661067	0.0118640686772571	0.005006048054388	0.075225973417934	0.0268897915270352
0.013000000000000001	0.1529052035300074	0.0037420360591549	0.0127232426912203	0.0057856126544706	0.0809592100812068	0.0322495289846796
0.014	0.1601225577668958	0.0020027008053452	0.0135728904572705	0.0065741104768423	0.0865941491522669	0.0377164192689156
0.015	0.1672242451832507	0.0002844711419201	0.0144125306522517	0.0073713692685282	0.0921270131973386	0.0432894188834779
0.016	0.1742052621317208	0.0014118994953559	0.0152416969566311	0.0081772124967308	0.0975541473681658	0.0489673821417156
0.017	0.1810607342462254	0.0030856859541107	0.0160599386906728	0.0089914593577732	0.1028720242079123	0.054749060479798
0.018000000000000002	0.1877859227064223	0.0047361919866494	0.016866821411808	0.0098139247753238	0.1080772481703701	0.0606331018754301
0.019	0.1943762302150714	0.0063627508105442	0.0176619274725624	0.0106444193883069	0.113166559845719	0.0666180503776284
0.02	0.2008272066783638	0.0079647256086938	0.0184448565384174	0.0114827495290107	0.1181368398868561	0.0727023457530325
0.021	0.2071345545809524	0.0095415099692625	0.0192152260651866	0.0123287171919633	0.1229851126315776	0.0788843232542449
0.022	0.2132941340488668	0.0110925282660825	0.0199726717355215	0.0131821199941225	0.1277085494172697	0.0851622135155095
0.023	0.2193019675951811	0.0126172359802959	0.0207168478543008	0.0140427511270521	0.1323044715865024	0.0915341425809894
0.024	0.2251542445452263	0.0141151199642563	0.0214474277027337	0.0149103993017365	0.1367703531834205	0.097998132070726
0.025	0.2308473251401835	0.0155856986487627	0.0221641038510753	0.0157848486867644	0.1411038233420964	0.1045520994891789
0.026000000000000002	0.2363777443196094	0.0170285221949349	0.0228665884300485	0.0166658788407112	0.1453026683687817	0.111193858681111
0.027	0.2417422151850498	0.0184431725920433	0.0235546133610808	0.0175532646395142	0.1493648335208924	0.1179211204393463
0.028	0.2469376321482597	0.0198292637026973	0.0242279305456344	0.0184467761997753	0.1532884244866919	0.1247314932688364
0.029	0.2519610737687476	0.0211864412568651	0.0248863120139228	0.0193461787989289	0.1570717085710044	0.1316224843113145
0.03	0.256809805286369	0.022514382796209	0.0255295500333425	0.020251232793222	0.1607131155939149	0.1385915004347269
0.031	0.2614812808553183	0.0238127975703053	0.0261574571769474	0.0211616935344672	0.1642112385107088	0.1456358494913961
0.032	0.265973145486135	0.0250814263862778	0.0267698663523289	0.0220773112864192	0.1675648337622892	0.152752741748679
0.033	0.2702832367022504	0.0263200414134621	0.0273666307913937	0.0229978311416837	0.1707728213657626	0.1599392914956085
0.034	0.274409585917139	0.0275284459446428	0.0279476240015127	0.0239229929398824	0.1738342847549727	0.1671925188287282
0.035	0.2783504195377	0.0287064741154768	0.0285127396787495	0.024852531187899	0.1767484703806939	0.1745093516200767
0.036000000000000004	0.2821041597990061	0.0298539905836323	0.0290618915838728	0.0257861749829517	0.1795147870799096	0.1818866276700412
0.037	0.2856694253353032	0.0309708901692477	0.0295950133820562	0.026723647939241	0.182132805223558	0.1893210970476826
0.038	0.2890450314917818	0.0320570974582294	0.0301120584471999	0.0276646681190041	0.1846022556518795	0.196809424620995
0.039	0.2922299903811446	0.0331125663699139	0.0306129996318962	0.0286089479687728	0.1869230284063227	0.2043481927795219
0.04	0.2952235106884816	0.0341372796906644	0.0310978290040628	0.0295561942616048	0.1890951712666913	0.2119339043513676
0.041	0.2980249972271467	0.0351312485749168	0.0315665575512819	0.0305061080460691	0.1911188881017579	0.2195629857165197
0.042	0.300634050247635	0.0360945120152444	0.0320192148538646	0.0314583846026393	0.1929945370411827	0.2272317901178323
0.043000000000000003	0.3030504645006778	0.0370271362829569	0.0324558487276969	0.0324127134081998	0.1947226284761042	0.2349366011707712
0.044	0.3052742280551405	0.0379292143407746	0.0328765248379467	0.0333687781092626	0.1963038228953348	0.2426736365725084
0.045	0.3073055208708877	0.0388008652290909	0.0332813262847711	0.0343262565045799	0.1977389285635547	0.2504390520104901
0.046	0.3091447131265689	0.0396422334274058	0.0336703531622656	0.0352848205377891	0.1990288990473738	0.2582289452700054
0.047	0.3107923633023953	0.0404534881925039	0.0340437220920084	0.0362441363006845	0.2001748305945301	0.2660393605395805
0.048	0.3122492160181098	0.0412348228750981	0.0344015657326221	0.037203864047707	0.201177959371086	0.2738662929121217
0.049	0.3135161996268733	0.0419864542166075	0.0347440322669273	0.0381636582222429	0.2020396585609842	0.281705693078915
0.05	0.3145944235665612	0.0427086216278666	0.0350712848682406	0.039123167495346	0.2027614353320775	0.2895534722126888
0.051000000000000004	0.3154851754709434	0.0434015864515334	0.0353835011474989	0.0400820348174775	0.2033449276726639	0.2974055070350653
0.052000000000000005	0.3161899180444205	0.0440656312099613	0.0356808725827769	0.041039897484007	0.203791901102495	0.3052576450628799
0.053	0.3167102857052094	0.0447010588402485	0.0359636039328814	0.0419963872150418	0.2041042452622743	0.313105710026858
0.054	0.3170480810030424	0.0453081919180778	0.0362319126366409	0.0429511302502418	0.2042839703855933	0.3209455074551695
0.055	0.3172052708184968	0.0458873718719046	0.0364860281995497	0.0439037474591007	0.2043332036570347	0.3287728304132557
0.056	0.317183982351555	0.0464389581888623	0.0367261915693488	0.0448538544672017	0.2042541854600947	0.3365834653903467
